# Blender 4.0.2
# www.blender.org
v 2.226394 -1.068503 -3.549013
v 2.944925 0.787115 -3.348031
v 0.362955 -0.367581 -3.358473
v 1.081487 1.488037 -3.157491
v 2.120046 -0.812790 -5.529745
v 2.838577 1.042828 -5.328763
v 0.256607 -0.111868 -5.339205
v 0.975139 1.743751 -5.138223
v -1.015463 0.257316 3.583207
v -1.414816 2.191166 3.265809
v -2.189971 -0.238167 2.042095
v -2.589324 1.695683 1.724697
v 0.553309 0.378647 2.348610
v 0.153956 2.312497 2.031211
v -0.621199 -0.116836 0.807498
v -1.020552 1.817014 0.490099
v -4.742186 -1.000000 8.766254
v 4.742186 -1.000000 8.766254
v -4.742186 -1.000000 -8.766255
v 4.742186 -1.000000 -8.766256
v -2.988659 -1.000000 -0.837429
v -2.988659 1.000000 -0.837429
v -2.988659 -1.000000 -2.837429
v -2.988659 1.000000 -2.837429
v -0.988659 -1.000000 -0.837429
v -0.988659 1.000000 -0.837429
v -0.988659 -1.000000 -2.837429
v -0.988659 1.000000 -2.837429
v 0.672485 1.208751 -1.048456
v -0.008334 3.034047 -0.595927
v 1.754393 1.982574 -2.542000
v 1.073574 3.807870 -2.089471
v 2.210652 1.472370 0.202362
v 1.529834 3.297665 0.654891
v 3.292561 2.246193 -1.291182
v 2.611742 4.071488 -0.838653
v 0.416950 1.061990 4.599714
v 1.794057 2.370499 3.974109
v 0.416950 0.199309 2.795335
v 1.794057 1.507817 2.169731
v 1.867320 -0.180422 5.193716
v 3.244428 1.128087 4.568112
v 1.867320 -1.043103 3.389338
v 3.244428 0.265406 2.763734
vn 0.0532 -0.1279 0.9904
vn -0.9317 0.3505 0.0953
vn -0.0532 0.1279 -0.9904
vn 0.9317 -0.3505 -0.0953
vn -0.3593 -0.9278 -0.1005
vn 0.3593 0.9278 0.1005
vn -0.7844 -0.0607 0.6173
vn -0.5873 -0.2477 -0.7706
vn 0.7844 0.0607 -0.6173
vn 0.5873 0.2477 0.7706
vn 0.1997 -0.9669 0.1587
vn -0.1997 0.9669 -0.1587
vn -0.0000 1.0000 -0.0000
vn -1.0000 -0.0000 -0.0000
vn -0.0000 -0.0000 -1.0000
vn 1.0000 -0.0000 -0.0000
vn -0.0000 -0.0000 1.0000
vn -0.0000 -1.0000 -0.0000
vn -0.7691 -0.1318 -0.6254
vn 0.5410 0.3869 -0.7468
vn 0.7691 0.1318 0.6254
vn -0.5410 -0.3869 0.7468
vn 0.3404 -0.9126 -0.2263
vn -0.3404 0.9126 0.2263
vn -0.7252 0.6212 -0.2970
vn -0.0000 -0.4313 -0.9022
vn 0.7252 -0.6212 0.2970
vn -0.0000 0.4313 0.9022
vn -0.6886 -0.6543 0.3128
vn 0.6886 0.6543 -0.3128
vt 0.570672 0.000099
vt 0.555911 0.014860
vt 0.555911 0.000099
vt 0.570672 0.014860
vt 0.555911 0.029622
vt 0.570672 0.029622
vt 0.555911 0.044383
vt 0.570672 0.044383
vt 0.555911 0.059145
vt 0.541149 0.044383
vt 0.541149 0.029622
vt 0.585433 0.029622
vt 0.570672 0.059343
vt 0.555911 0.074104
vt 0.555911 0.059343
vt 0.570672 0.074104
vt 0.555911 0.088866
vt 0.570672 0.103627
vt 0.555911 0.103627
vt 0.570672 0.118388
vt 0.555911 0.118388
vt 0.541149 0.088866
vt 0.541149 0.103627
vt 0.585433 0.088866
vt 0.570672 0.088866
vt 0.000099 0.999901
vt 0.540951 0.000099
vt 0.540951 0.999901
vt 0.570672 0.118587
vt 0.555911 0.133348
vt 0.555911 0.118587
vt 0.570672 0.148109
vt 0.555911 0.148109
vt 0.555911 0.162871
vt 0.570672 0.177632
vt 0.555911 0.177632
vt 0.541149 0.162871
vt 0.541149 0.148109
vt 0.585433 0.162871
vt 0.570672 0.162871
vt 0.570672 0.177830
vt 0.555911 0.192592
vt 0.555911 0.177830
vt 0.570672 0.192592
vt 0.555911 0.207353
vt 0.570672 0.222115
vt 0.555911 0.222115
vt 0.570672 0.236876
vt 0.555911 0.236876
vt 0.541149 0.222115
vt 0.541149 0.207353
vt 0.570672 0.207353
vt 0.585433 0.222115
vt 0.570672 0.237074
vt 0.555911 0.251836
vt 0.555911 0.237074
vt 0.570672 0.266597
vt 0.555911 0.266597
vt 0.555911 0.281358
vt 0.570672 0.296120
vt 0.555911 0.296120
vt 0.541149 0.266597
vt 0.541149 0.281358
vt 0.585433 0.281358
vt 0.570672 0.281358
vt 0.570672 0.059145
vt 0.585433 0.044383
vt 0.585433 0.103627
vt 0.000099 0.000099
vt 0.570672 0.133348
vt 0.585433 0.148109
vt 0.585433 0.207353
vt 0.570672 0.251836
vt 0.585433 0.266597
s 0
f 2/1/1 3/2/1 1/3/1
f 4/4/2 7/5/2 3/2/2
f 8/6/3 5/7/3 7/5/3
f 6/8/4 1/9/4 5/7/4
f 7/5/5 1/10/5 3/11/5
f 4/12/6 6/8/6 8/6/6
f 10/13/7 11/14/7 9/15/7
f 12/16/8 15/17/8 11/14/8
f 15/17/9 14/18/9 13/19/9
f 13/19/10 10/20/10 9/21/10
f 11/22/11 13/19/11 9/23/11
f 12/24/12 14/18/12 16/25/12
f 18/26/13 19/27/13 17/28/13
f 22/29/14 23/30/14 21/31/14
f 23/30/15 28/32/15 27/33/15
f 28/32/16 25/34/16 27/33/16
f 25/34/17 22/35/17 21/36/17
f 27/33/18 21/37/18 23/38/18
f 28/32/13 22/39/13 26/40/13
f 30/41/19 31/42/19 29/43/19
f 32/44/20 35/45/20 31/42/20
f 35/45/21 34/46/21 33/47/21
f 33/47/22 30/48/22 29/49/22
f 35/45/23 29/50/23 31/51/23
f 36/52/24 30/53/24 34/46/24
f 38/54/25 39/55/25 37/56/25
f 39/55/26 44/57/26 43/58/26
f 44/57/27 41/59/27 43/58/27
f 41/59/28 38/60/28 37/61/28
f 39/62/29 41/59/29 37/63/29
f 44/57/30 38/64/30 42/65/30
f 2/1/1 4/4/1 3/2/1
f 4/4/2 8/6/2 7/5/2
f 8/6/3 6/8/3 5/7/3
f 6/8/4 2/66/4 1/9/4
f 7/5/5 5/7/5 1/10/5
f 4/12/6 2/67/6 6/8/6
f 10/13/7 12/16/7 11/14/7
f 12/16/8 16/25/8 15/17/8
f 15/17/9 16/25/9 14/18/9
f 13/19/10 14/18/10 10/20/10
f 11/22/11 15/17/11 13/19/11
f 12/24/12 10/68/12 14/18/12
f 18/26/13 20/69/13 19/27/13
f 22/29/14 24/70/14 23/30/14
f 23/30/15 24/70/15 28/32/15
f 28/32/16 26/40/16 25/34/16
f 25/34/17 26/40/17 22/35/17
f 27/33/18 25/34/18 21/37/18
f 28/32/13 24/71/13 22/39/13
f 30/41/19 32/44/19 31/42/19
f 32/44/20 36/52/20 35/45/20
f 35/45/21 36/52/21 34/46/21
f 33/47/22 34/46/22 30/48/22
f 35/45/23 33/47/23 29/50/23
f 36/52/24 32/72/24 30/53/24
f 38/54/25 40/73/25 39/55/25
f 39/55/26 40/73/26 44/57/26
f 44/57/27 42/65/27 41/59/27
f 41/59/28 42/65/28 38/60/28
f 39/62/29 43/58/29 41/59/29
f 44/57/30 40/74/30 38/64/30
